700 0 4 0           
30 Autodesk Translation Framework 20 ASM 227.1.1.65535 NT 24 Thu Apr 29 19:35:12 2021 
1 9.999999999999999547e-07 1.000000000000000036e-10 
body $4 -1 $-1 $5 $-1 $6 #
body $7 -1 $-1 $8 $-1 $9 #
body $10 -1 $-1 $11 $-1 $12 #
body $13 -1 $-1 $14 $-1 $15 #
rgb_color-st-attrib $-1 -1 $16 $-1 $0 0.627450980392156854 0.627450980392156854 0.627450980392156854 #
lump $-1 -1 $-1 $-1 $17 $0 #
transform $-1 -1 1 0 0 0 1 0 0 0 1 0 0 0 1 no_rotate no_reflect no_shear #
rgb_color-st-attrib $-1 -1 $18 $-1 $1 0.627450980392156854 0.627450980392156854 0.627450980392156854 #
lump $-1 -1 $-1 $-1 $19 $1 #
transform $-1 -1 1 0 0 0 1 0 0 0 1 0 0 0 1 no_rotate no_reflect no_shear #
rgb_color-st-attrib $-1 -1 $20 $-1 $2 0.627450980392156854 0.627450980392156854 0.627450980392156854 #
lump $-1 -1 $-1 $-1 $21 $2 #
transform $-1 -1 1 0 0 0 1 0 0 0 1 0 0 0 1 no_rotate no_reflect no_shear #
rgb_color-st-attrib $-1 -1 $22 $-1 $3 0.627450980392156854 0.627450980392156854 0.627450980392156854 #
lump $-1 -1 $-1 $-1 $23 $3 #
transform $-1 -1 1 0 0 0 1 0 0 0 1 0 0 0 1 no_rotate no_reflect no_shear #
ATTRIB_CUSTOM-attrib $-1 -1 $-1 $4 $0 @20 Timestamp_attrib_def 1 1592500431437035 #
shell $-1 -1 $-1 $-1 $-1 $24 $-1 $5 #
ATTRIB_CUSTOM-attrib $-1 -1 $-1 $7 $1 @20 Timestamp_attrib_def 1 1592500431427660 #
shell $-1 -1 $-1 $-1 $-1 $25 $-1 $8 #
ATTRIB_CUSTOM-attrib $-1 -1 $-1 $10 $2 @20 Timestamp_attrib_def 1 1592500431507317 #
shell $-1 -1 $-1 $-1 $-1 $26 $-1 $11 #
ATTRIB_CUSTOM-attrib $-1 -1 $-1 $13 $3 @20 Timestamp_attrib_def 1 1592500431507317 #
shell $-1 -1 $-1 $-1 $-1 $27 $-1 $14 #
face $28 -1 $-1 $-1 $29 $17 $-1 $30 forward double out #
face $31 -1 $-1 $32 $33 $19 $-1 $34 reversed double out #
face $35 -1 $-1 $36 $37 $21 $-1 $38 forward double out #
face $39 -1 $-1 $40 $41 $23 $-1 $42 forward double out #
DXID-attrib $-1 -1 $-1 $-1 $24 @10 ASM ENTITY @1 0 #
loop $-1 -1 $-1 $-1 $43 $24 #
plane-surface $-1 -1 $-1 40.00000029802316703 38.99999979138383566 5.000000029802314394 -4.27642353614752215e-49 9.714451465470124659e-17 1 9.999999999999987566 6.162975822039143782e-32 -1.710569414458994275e-48 forward_v I I I I #
DXID-attrib $-1 -1 $-1 $-1 $25 @10 ASM ENTITY @1 0 #
face $44 -1 $-1 $45 $46 $19 $-1 $47 reversed double out #
loop $-1 -1 $-1 $-1 $48 $25 #
spline-surface $-1 -1 $-1 forward { exactsur full nubs 3 3 open open none none 4 2 
	0 3 0.2857142857142856984 1 0.5714285714285713969 1 1 3 
	0 3 1 3 
	39.56698759613095007 38.74999979138383566 5.000000029802314394 
	39.51712104607396725 38.83637118968070467 5.000000029802314394 
	39.47107000772670915 39.03912712654143036 5.000000029802313506 
	39.60383438274742218 39.38011602755003793 5.000000029802314394 
	39.85040064785222569 39.49999979138383566 5.000000029802314394 
	40.00000029802316703 39.49999979138383566 5.000000029802314394 
	38.55662462504911048 38.16666646301755605 5.333333363135647431 
	38.63342617164560977 38.41473731635478828 5.333333363135647431 
	38.82267629634550588 38.93071720318188511 5.333333363135647431 
	39.29600570599470188 39.82492105147949957 5.333333363135645655 
	39.73550732209471903 40.38036851484197598 5.333333363135647431 
	40.00000029802316703 40.66666646301754895 5.333333363135647431 
	37.54626165396726378 37.58333313465127645 5.66666669646897958 
	37.7495079968507099 37.99306225103948975 5.666666696468981357 
	38.17403571287740505 38.8226954439302645 5.66666669646897958 
	38.98817121662816021 40.26948049664125051 5.66666669646897958 
	39.6200219644752849 41.26248822568399532 5.66666669646897958 
	40.00000029802316703 41.83333313465126935 5.66666669646897958 
	36.53589868288541709 36.99999980628499685 6.000000029802313506 
	36.86581312242234532 37.57142837771357335 6.000000029802313506 
	37.52564200149620177 38.71428552057071215 6.000000029802312618 
	38.68034253987545412 40.71428552057070505 6.00000002980231173 
	39.50512863871777824 42.14285694914213565 6.000000029802312618 
	40.00000029802316703 42.99999980628498975 6.000000029802312618 
	0 
	
	0 
	0 
	2 0.2857142857142856984 0.5714285714285713969 
	0 
	0 
	0 
	F 1 F 0 F 1 F 0 } I I I I #
DXID-attrib $-1 -1 $-1 $-1 $26 @10 ASM ENTITY @1 0 #
face $49 -1 $-1 $50 $51 $21 $-1 $52 reversed double out #
loop $-1 -1 $-1 $53 $54 $26 #
torus-surface $-1 -1 $-1 39.99999999999994316 38.67500002980241192 4.500000029802315282 4.27642353614752215e-49 -9.714451465470124659e-17 -1 35.99999999999995026 2.499999999999996891 -6.162975822039151309e-33 1 -9.714451465470124659e-17 forward_v I I I I #
DXID-attrib $-1 -1 $-1 $-1 $27 @10 ASM ENTITY @1 0 #
face $55 -1 $-1 $56 $57 $23 $-1 $58 forward double out #
loop $-1 -1 $-1 $-1 $59 $27 #
plane-surface $-1 -1 $-1 44.81286930291535953 40.65942843705028764 1.500000029802317947 0.1347216343002842209 -0.0777815682019239174 -0.9878259507117183036 -6.14395894322664495e-32 9.969143349963339062 -0.7849718898670872136 forward_v I I I I #
coedge $-1 -1 $-1 $43 $43 $-1 $60 reversed $29 $-1 #
DXID-attrib $-1 -1 $-1 $-1 $32 @10 ASM ENTITY @1 1 #
face $61 -1 $-1 $62 $63 $19 $-1 $64 reversed double out #
loop $-1 -1 $-1 $-1 $65 $32 #
spline-surface $-1 -1 $-1 forward { exactsur full nubs 3 3 open open none none 4 2 
	0 3 0.2857142857142856984 1 0.5714285714285713969 1 1 3 
	0 3 1 3 
	40.00000029802316703 39.49999979138383566 5.000000029802314394 
	40.09973339813713267 39.49999979138383566 5.000000029802314394 
	40.29833856755658417 39.43849865232380836 5.000000029802315282 
	40.52725202785597958 39.15303183717730917 5.000000029802313506 
	40.50781282500085467 38.87955688882913563 5.000000029802314394 
	40.43301299991539111 38.74999979138383566 5.000000029802314394 
	40.00000029802316703 40.66666646301754895 5.333333363135647431 
	40.17643518565343186 40.47611894594643189 5.333333363135645655 
	40.52864967129389839 40.05422904716435539 5.333333363135647431 
	41.06637881238459897 39.19721678674435594 5.333333363135645655 
	41.32768116279004289 38.53887307338192869 5.333333363135647431 
	41.4433759709972307 38.16666646301755605 5.333333363135647431 
	40.00000029802316703 41.83333313465126935 5.66666669646897958 
	40.25321295004378896 41.452452080293817 5.66666669646897958 
	40.75943251289663749 40.66998369715872741 5.66666669646897958 
	41.60531737048457757 39.24152914243223478 5.66666669646897958 
	42.14936191606633287 38.19782647887505789 5.66666669646897958 
	42.45373894207907028 37.58333313465126935 5.66666669646897958 
	40.00000029802316703 42.99999980628498975 6.000000029802312618 
	40.32991473756009526 42.42857123485642035 6.000000029802312618 
	40.98974361663395172 41.28571409199927444 6.000000029802313506 
	42.14444415501319696 39.28571409199928155 6.00000002980231173 
	42.96923025385552108 37.85714266342785095 6.000000029802313506 
	43.46410191316091698 36.99999980628498975 6.000000029802313506 
	0 
	
	0 
	0 
	2 0.2857142857142856984 0.5714285714285713969 
	0 
	0 
	0 
	F 1 F 0 F 1 F 0 } I I I I #
tcoedge-coedge $-1 -1 $-1 $66 $67 $-1 $68 reversed $33 $69 -4.712388980384689674 -2.617993877991495744 #
DXID-attrib $-1 -1 $-1 $-1 $36 @10 ASM ENTITY @1 1 #
face $70 -1 $-1 $71 $72 $21 $-1 $73 reversed double out #
loop $-1 -1 $-1 $74 $75 $36 #
plane-surface $-1 -1 $-1 39.99999999999994316 38.67500002980241902 7.000000029802310841 4.27642353614752215e-49 -9.714451465470124659e-17 -1 9.999999999999987566 6.162975822039143782e-32 -1.710569414458994275e-48 forward_v I I I I #
loop $-1 -1 $-1 $-1 $76 $26 #
coedge $-1 -1 $-1 $54 $54 $77 $78 forward $37 $-1 #
DXID-attrib $-1 -1 $-1 $-1 $40 @10 ASM ENTITY @1 1 #
face $79 -1 $-1 $80 $81 $23 $-1 $82 forward double out #
loop $-1 -1 $-1 $-1 $83 $40 #
plane-surface $-1 -1 $-1 34.49999983969820505 41.85085287983394409 1.500000029802317947 -3.141084130854748543e-09 0.1555631418443649827 -0.9878259507117183036 -6.087947450619151118e-32 9.878259507117171268 1.55563141844364794 forward_v I I I I #
coedge $-1 -1 $-1 $84 $85 $86 $87 reversed $41 $-1 #
edge $88 -1 $-1 $89 -3.141592653589793116 $89 3.141592653589793116 $43 $90 forward @7 unknown #
DXID-attrib $-1 -1 $-1 $-1 $45 @10 ASM ENTITY @1 2 #
face $91 -1 $-1 $92 $93 $19 $-1 $94 forward double out #
loop $-1 -1 $-1 $-1 $95 $45 #
spline-surface $-1 -1 $-1 forward { exactsur full nubs 3 3 open open none none 4 2 
	0 3 0.2857142857142856984 1 0.5714285714285713969 1 1 3 
	0 3 1 3 
	40.43301299991539111 38.74999979138383566 5.000000029802314394 
	40.38314644985840118 38.66362839308696664 5.000000029802314394 
	40.23058231636102278 38.52238184057681281 5.000000029802315282 
	39.86890407235700451 38.46687037626259809 5.000000029802313506 
	39.64178742121642074 38.62044269393853568 5.000000029802314394 
	39.56698759613095007 38.74999979138383566 5.000000029802314394 
	41.4433759709972307 38.16666646301755605 5.333333363135647431 
	41.19013953677045947 38.10914312675144799 5.333333363135647431 
	40.64866492400490472 38.01506138399697221 5.33333336313564832 
	39.63760596458109831 37.97788041766725087 5.333333363135645655 
	38.93681240918473918 38.08075780082876349 5.333333363135647431 
	38.55662462504910337 38.16666646301755605 5.333333363135647431 
	42.45373894207907028 37.58333313465127645 5.66666669646897958 
	41.99727994717500934 37.5544850726205226 5.666666696468981357 
	41.06653266829546567 37.50732026286483745 5.666666696468981357 
	39.40651230695674201 37.48898976488035117 5.66666669646897958 
	38.23061701352787622 37.53968469939476904 5.66666669646897958 
	37.54626165396726378 37.58333313465127645 5.66666669646897958 
	43.46410191316091698 36.99999980628499685 6.000000029802313506 
	42.80427303408706052 36.99999980628499685 6.000000029802313506 
	41.48461527593936182 36.99999980628498975 6.000000029802314394 
	39.17521419918083581 36.99999980628500396 6.00000002980231173 
	37.52564200149620177 36.99999980628499685 6.000000029802313506 
	36.53589868288541709 36.99999980628499685 6.000000029802313506 
	0 
	
	0 
	0 
	2 0.2857142857142856984 0.5714285714285713969 
	0 
	0 
	0 
	F 1 F 0 F 1 F 0 } I I I I #
tcoedge-coedge $-1 -1 $-1 $96 $97 $-1 $98 reversed $46 $99 -0.5235987755982952629 1.570796326794896558 #
coedge $-1 -1 $-1 $100 $48 $101 $102 forward $33 $103 #
coedge $-1 -1 $-1 $48 $100 $96 $104 reversed $33 $105 #
tedge-edge $106 -1 $-1 $107 2.617993877991495744 $108 4.712388980384689674 $48 $109 forward @7 unknown 0.001091970728090539298 #
pcurve $-1 -1 $-1 0 reversed { exppc nubs 1 open 2 
	2.617993877991495744 1 4.712388980384689674 1 
	0 0 
	1 1.038426144098012088e-17 
	0 
	spline forward { ref 0 } I I I I 
	} 0 0 #
DXID-attrib $-1 -1 $-1 $-1 $50 @10 ASM ENTITY @1 2 #
face $110 -1 $-1 $111 $112 $21 $-1 $113 reversed double out #
loop $-1 -1 $-1 $-1 $114 $50 #
plane-surface $-1 -1 $-1 33.49999999999995026 35.2472232800698464 7.00000002980231173 -0.8660254037844384856 0.5000000000000003331 -4.857225732735065411e-17 4.999999999999997335 8.660254037844374864 -8.41296175292808387e-16 forward_v I I I I #
loop $-1 -1 $-1 $-1 $77 $36 #
coedge $-1 -1 $-1 $115 $116 $117 $118 forward $51 $-1 #
coedge $-1 -1 $-1 $76 $76 $-1 $119 reversed $53 $-1 #
coedge $-1 -1 $-1 $77 $77 $54 $78 reversed $74 $-1 #
edge $-1 -1 $-1 $120 -3.141592653589793116 $120 3.141592653589793116 $77 $121 forward @7 tangent #
DXID-attrib $-1 -1 $-1 $-1 $56 @10 ASM ENTITY @1 2 #
face $122 -1 $-1 $123 $124 $23 $-1 $125 reversed double out #
loop $-1 -1 $-1 $-1 $126 $56 #
plane-surface $-1 -1 $-1 40.68713076121038341 31.133148995406561 1.500000029802319057 -0.1347216311592000781 -0.07778157364244130123 -0.9878259507117183036 -6.143958940578632042e-32 9.969143345666692468 -0.7849719444344912533 forward_v I I I I #
coedge $-1 -1 $-1 $127 $128 $129 $130 forward $57 $-1 #
coedge $-1 -1 $-1 $131 $59 $132 $133 forward $41 $-1 #
coedge $-1 -1 $-1 $59 $131 $128 $134 forward $41 $-1 #
coedge $-1 -1 $-1 $135 $136 $59 $87 forward $137 $-1 #
edge $-1 -1 $-1 $138 -1.649999999999999467 $139 0.5499999999999994893 $86 $140 forward @7 unknown #
DXID-attrib $-1 -1 $-1 $-1 $60 @10 ASM ENTITY @1 1 #
vertex $-1 -1 $-1 $60 $141 #
ellipse-curve $-1 -1 $-1 40.00000029802316703 38.99999979138383566 5.000000029802314394 4.27642353614752215e-49 -9.714451465470124659e-17 -1 0.4999999999999993894 3.081487911019571891e-33 -8.552847072294971943e-50 1 I I #
DXID-attrib $-1 -1 $-1 $-1 $62 @10 ASM ENTITY @1 3 #
face $142 -1 $-1 $143 $144 $19 $-1 $145 forward double out #
loop $-1 -1 $-1 $-1 $146 $62 #
plane-surface $-1 -1 $-1 33.49999999999995026 35.2472232800698464 7.00000002980231173 -0.4291554266335981804 0.247773001091096734 -0.8685816943277390179 -5.926557009519006779e-32 9.616388544516599524 2.743186351834248971 forward_v I I I I #
tcoedge-coedge $-1 -1 $-1 $147 $101 $-1 $148 reversed $63 $149 -2.617993877991495744 -0.5235987755982952629 #
coedge $-1 -1 $-1 $150 $65 $67 $104 forward $46 $151 #
coedge $-1 -1 $-1 $65 $150 $147 $152 reversed $46 $153 #
tedge-edge $154 -1 $-1 $108 -1.570796326794896558 $155 0.5235987755982952629 $65 $156 forward @7 unknown 0.001099480524774742226 #
pcurve $-1 -1 $-1 0 reversed { exppc nubs 1 open 2 
	-1.570796326794896558 1 0.5235987755982952629 1 
	0 0 
	0.9999999999999996669 1.408790799006784298e-15 
	4.83323677919118191e-15 
	spline forward { ref 1 } I I I I 
	} 0 0 #
coedge $-1 -1 $-1 $67 $66 $157 $158 forward $33 $159 #
coedge $-1 -1 $-1 $95 $160 $66 $102 reversed $63 $161 #
edge $162 -1 $-1 $107 0 $163 1 $101 $164 forward @7 unknown #
pcurve $-1 -1 $-1 0 reversed { exppc nubs 1 open 2 
	-1 1 0 1 
	0 1 
	0 0 
	2.262237056009995965e-15 
	spline forward { ref 0 } I I I I 
	} 0 0 #
edge $165 -1 $-1 $108 0 $166 1 $96 $167 forward @7 unknown #
pcurve $-1 -1 $-1 0 reversed { exppc nubs 1 open 2 
	0 1 1 1 
	1 0 
	1 0.9999999999999996669 
	2.333438896868014843e-15 
	spline forward { ref 0 } I I I I 
	} 0 0 #
DXID-attrib $-1 -1 $-1 $-1 $68 @10 ASM ENTITY @1 6 #
tvertex-vertex $-1 -1 $-1 $68 $168 9.999999999999999395e-12 #
tvertex-vertex $-1 -1 $-1 $68 $169 9.999999999999999395e-12 #
ellipse-curve $-1 -1 $-1 40.00000029802316703 38.99999979138383566 5.000000029802314394 4.27642353614752215e-49 -9.714451465470124659e-17 -1 0.4999999999999993894 3.081487911019571891e-33 -8.552847072294971943e-50 1 F 2.617993877991495744 F 4.712388980384689674 #
DXID-attrib $-1 -1 $-1 $-1 $71 @10 ASM ENTITY @1 3 #
face $170 -1 $-1 $-1 $171 $21 $-1 $172 reversed double out #
loop $-1 -1 $-1 $-1 $173 $71 #
plane-surface $-1 -1 $-1 39.99999999999994316 46.50555352926753727 7.000000029802310841 0.8660254037844388186 0.4999999999999996669 -4.857225732735059248e-17 4.99999999999999023 -8.66025403784437664 8.412961752928087814e-16 forward_v I I I I #
coedge $174 -1 $-1 $175 $176 $115 $177 reversed $72 $-1 #
coedge $-1 -1 $-1 $116 $75 $114 $177 forward $51 $-1 #
coedge $-1 -1 $-1 $75 $115 $173 $178 forward $51 $-1 #
coedge $179 -1 $-1 $180 $181 $75 $118 reversed $171 $-1 #
edge $-1 -1 $-1 $182 -0.3249999999999997335 $183 0.9750000000000003109 $75 $184 forward @7 unknown #
edge $185 -1 $-1 $186 -3.141592653589793116 $186 3.141592653589793116 $76 $187 forward @7 unknown #
vertex $-1 -1 $-1 $78 $188 #
ellipse-curve $-1 -1 $-1 39.99999999999994316 38.67500002980241192 7.000000029802310841 4.27642353614752215e-49 -9.714451465470124659e-17 -1 35.99999999999995026 2.218671295934091762e-31 -6.158049892052379875e-48 1 I I #
DXID-attrib $-1 -1 $-1 $-1 $80 @10 ASM ENTITY @1 3 #
face $189 -1 $-1 $190 $137 $23 $-1 $191 forward double out #
loop $-1 -1 $-1 $-1 $192 $80 #
plane-surface $-1 -1 $-1 39.99999987176543215 35.49957366031382122 1.000000029802319279 -4.27642353614752215e-49 9.714451465470124659e-17 1 6.162975822039143782e-32 -9.999999999999987566 9.71445146547011184e-16 forward_v I I I I #
coedge $-1 -1 $-1 $193 $132 $136 $194 reversed $81 $-1 #
coedge $-1 -1 $-1 $195 $83 $193 $196 forward $57 $-1 #
coedge $-1 -1 $-1 $83 $195 $85 $134 reversed $57 $-1 #
coedge $-1 -1 $-1 $192 $197 $83 $130 reversed $124 $-1 #
edge $-1 -1 $-1 $198 -0.5501477468113505909 $199 -0.5498522724238258386 $129 $200 forward @7 unknown #
coedge $-1 -1 $-1 $85 $84 $192 $201 forward $41 $-1 #
coedge $-1 -1 $-1 $126 $202 $84 $133 reversed $81 $-1 #
edge $-1 -1 $-1 $138 0 $203 1.273930924344016447 $84 $204 forward @7 unknown #
edge $-1 -1 $-1 $198 0 $139 1.273930924344016002 $85 $205 forward @7 unknown #
coedge $-1 -1 $-1 $136 $86 $195 $206 forward $137 $-1 #
coedge $-1 -1 $-1 $86 $135 $126 $194 forward $137 $-1 #
loop $-1 -1 $-1 $207 $86 $123 #
vertex $-1 -1 $-1 $87 $208 #
vertex $-1 -1 $-1 $87 $209 #
straight-curve $-1 -1 $-1 48.24999996794130652 40.26271343665540314 2.000000029802317503 4.999999825134747944 8.660254138802871537 -8.412961851003726699e-16 I I #
point $-1 -1 $-1 39.50000029802316703 38.99999979138383566 5.000000029802314394 #
DXID-attrib $-1 -1 $-1 $-1 $92 @10 ASM ENTITY @1 4 #
face $210 -1 $-1 $-1 $211 $19 $-1 $212 forward double out #
loop $-1 -1 $-1 $-1 $213 $92 #
plane-surface $-1 -1 $-1 39.99999999999994316 46.50555352926753727 7.000000029802310841 0.4291555219834616297 0.2477730561413656329 -0.8685816315128189746 -5.926556878178917725e-32 9.616388331405120837 2.743187098907984733 forward_v I I I I #
coedge $-1 -1 $-1 $214 $215 $-1 $216 forward $93 $-1 #
coedge $-1 -1 $-1 $160 $95 $97 $152 forward $63 $217 #
tedge-edge $218 -1 $-1 $155 0.5235987755982952629 $107 2.617993877991495744 $95 $219 forward @7 unknown 0.001099480524776919954 #
pcurve $-1 -1 $-1 0 reversed { exppc nubs 1 open 2 
	0.5235987755982952629 1 2.617993877991495744 1 
	0 0 
	1 5.497534288738813626e-18 
	0 
	spline forward { ref 2 } I I I I 
	} 0 0 #
coedge $-1 -1 $-1 $97 $96 $220 $221 forward $46 $222 #
pcurve $-1 -1 $-1 0 reversed { exppc nubs 1 open 2 
	-1 1 -0 1 
	0 1 
	0 0 
	2.333438896868014843e-15 
	spline forward { ref 1 } I I I I 
	} 0 0 #
edge $223 -1 $-1 $155 0 $224 1 $147 $225 forward @7 unknown #
pcurve $-1 -1 $-1 0 reversed { exppc nubs 1 open 2 
	0 1 1 1 
	1 0 
	1 0.9999999999999986677 
	5.340884772615723974e-15 
	spline forward { ref 1 } I I I I 
	} 0 0 #
DXID-attrib $-1 -1 $-1 $-1 $98 @10 ASM ENTITY @2 10 #
tvertex-vertex $-1 -1 $-1 $98 $226 1.00071054273576004e-11 #
ellipse-curve $-1 -1 $-1 40.00000029802316703 38.99999979138383566 5.000000029802314394 4.27642353614752215e-49 -9.714451465470124659e-17 -1 0.4999999999999993894 3.081487911019571891e-33 -8.552847072294971943e-50 1 F -1.570796326794896558 F 0.5235987755982952629 #
coedge $-1 -1 $-1 $215 $214 $100 $158 reversed $93 $-1 #
edge $227 -1 $-1 $163 -0.6928203230275509217 $166 0 $100 $228 forward @7 unknown #
pcurve $-1 -1 $-1 0 reversed { exppc nubs 1 open 2 
	-0 1 0.6928203230275506996 1 
	1 1 
	2.619388525710126e-16 1 
	3.1701418165832071e-15 
	spline forward { ref 0 } I I I I 
	} 0 0 #
coedge $-1 -1 $-1 $101 $147 $229 $230 forward $63 $231 #
pcurve $-1 -1 $-1 0 reversed { exppc nubs 1 open 2 
	0 1 1 1 
	1 0 
	1 0.999999999999999778 
	3.244596751041637676e-15 
	spline forward { ref 2 } I I I I 
	} 0 0 #
DXID-attrib $-1 -1 $-1 $-1 $102 @10 ASM ENTITY @1 7 #
vertex $-1 -1 $-1 $102 $232 #
straight-curve $-1 -1 $-1 39.56698759613095007 38.74999979138383566 5.000000029802314394 -3.031088913245532979 -1.749999985098837918 0.9999999999999988898 F 0 F 1 #
DXID-attrib $-1 -1 $-1 $-1 $104 @10 ASM ENTITY @1 9 #
vertex $-1 -1 $-1 $158 $233 #
straight-curve $-1 -1 $-1 40.00000029802316703 39.49999979138383566 5.000000029802314394 -2.157041546897248297e-32 3.500000014901154533 0.9999999999999981126 F 0 F 1 #
point $-1 -1 $-1 39.56698759613095007 38.74999979138383566 5.000000029802314394 #
point $-1 -1 $-1 40.00000029802316703 39.49999979138383566 5.000000029802314394 #
DXID-attrib $-1 -1 $-1 $-1 $111 @10 ASM ENTITY @1 4 #
loop $-1 -1 $-1 $-1 $117 $111 #
plane-surface $-1 -1 $-1 46.49999999999992895 35.2472232800698464 7.00000002980231173 -1.70803542250024068e-16 -1 9.714451465470124659e-17 -9.999999999999987566 1.70803542250023851e-15 -1.659262721318232669e-31 forward_v I I I I #
coedge $234 -1 $-1 $235 $236 $116 $178 reversed $112 $-1 #
ATTRIB_CUSTOM-attrib $-1 -1 $-1 $-1 $114 @17 sketch_attrib_def 1 1 3 @13 111 0 0 0 1 1 #
coedge $-1 -1 $-1 $237 $114 $181 $238 forward $72 $-1 #
coedge $-1 -1 $-1 $114 $237 $235 $239 reversed $72 $-1 #
edge $-1 -1 $-1 $183 -0.3109270871885031484 $240 0.9890729128114974511 $115 $241 forward @7 unknown #
edge $-1 -1 $-1 $240 -0.3390729128114968738 $182 0.9609270871885029486 $116 $242 forward @7 unknown #
ATTRIB_CUSTOM-attrib $-1 -1 $-1 $-1 $117 @17 sketch_attrib_def 1 1 3 @13 109 0 0 0 1 1 #
coedge $-1 -1 $-1 $243 $117 $236 $244 forward $171 $-1 #
coedge $-1 -1 $-1 $117 $243 $175 $238 reversed $171 $-1 #
vertex $-1 -1 $-1 $118 $245 #
vertex $-1 -1 $-1 $118 $246 #
straight-curve $-1 -1 $-1 43.24999999999994316 35.2472232800698464 7.00000002980231173 -9.999999999999987566 1.70803542250023851e-15 -1.659262721318232669e-31 I I #
DXID-attrib $-1 -1 $-1 $-1 $119 @10 ASM ENTITY @1 6 #
vertex $-1 -1 $-1 $119 $247 #
ellipse-curve $-1 -1 $-1 39.99999999999994316 38.67500002980241192 4.500000029802315282 4.27642353614752215e-49 -9.714451465470124659e-17 -1 -2.372745691485070192e-31 38.49999999999995026 -3.74006381420599294e-15 1 I I #
point $-1 -1 $-1 3.999999999999991118 38.67500002980241902 7.000000029802310841 #
DXID-attrib $-1 -1 $-1 $-1 $123 @10 ASM ENTITY @1 4 #
face $248 -1 $-1 $-1 $249 $23 $-1 $250 forward double out #
plane-surface $-1 -1 $-1 39.99999999999994316 38.67500002980241902 2.000000029802317503 4.27642353614752215e-49 -9.714451465470124659e-17 -1 9.999999999999987566 6.162975822039143782e-32 -1.710569414458994275e-48 forward_v I I I I #
coedge $-1 -1 $-1 $197 $129 $131 $201 reversed $124 $-1 #
coedge $-1 -1 $-1 $202 $126 $127 $196 reversed $81 $-1 #
edge $-1 -1 $-1 $251 -1.649999999999999467 $138 0.5499999999999998224 $136 $252 forward @7 unknown #
coedge $-1 -1 $-1 $128 $127 $135 $206 reversed $57 $-1 #
edge $-1 -1 $-1 $199 0 $251 1.273930924344016669 $127 $253 forward @7 unknown #
coedge $-1 -1 $-1 $129 $192 $202 $254 reversed $124 $-1 #
vertex $-1 -1 $-1 $201 $255 #
vertex $-1 -1 $-1 $130 $256 #
straight-curve $-1 -1 $-1 34.49999990380685233 38.67585287983394693 1.000000029802318835 -9.999999999999985789 -2.019169896939518663e-07 1.961512796435726614e-23 F -3.618500996795859681 F 2.518501003204141053 #
edge $-1 -1 $-1 $203 -0.4126477371937621319 $198 -0.4123522628062373241 $192 $257 forward @7 unknown #
coedge $-1 -1 $-1 $132 $193 $197 $254 forward $81 $-1 #
vertex $-1 -1 $-1 $133 $258 #
straight-curve $-1 -1 $-1 40.00000025646897228 25.97329410763067159 2.000000029802318835 -2.012939440723497802e-07 9.969143347815013101 -0.784971917150789511 F 0 F 1.273930924344016447 #
straight-curve $-1 -1 $-1 40.00147737192034469 38.67585299091813056 1.000000029802318835 8.63353129252947582 4.984571848233174229 0.7849719171507885118 F 0 F 1.273930924344016002 #
edge $-1 -1 $-1 $139 -1.649999999999999023 $251 0.5499999999999997113 $135 $259 forward @7 unknown #
loop $-1 -1 $-1 $-1 $260 $123 #
point $-1 -1 $-1 40.00000025646897228 25.97329410763067159 2.000000029802318835 #
point $-1 -1 $-1 50.99999987176541083 45.02585321299697796 2.000000029802317059 #
DXID-attrib $-1 -1 $-1 $-1 $143 @10 ASM ENTITY @1 5 #
loop $-1 -1 $-1 $-1 $261 $143 #
plane-surface $-1 -1 $-1 46.49999999999992895 35.2472232800698464 7.00000002980231173 -8.464103413790914118e-17 -0.4955461287448635344 -0.8685816221207880439 -5.353047536597956851e-32 8.685816221207868892 -4.955461287448629015 forward_v I I I I #
coedge $-1 -1 $-1 $262 $263 $-1 $264 forward $144 $-1 #
coedge $-1 -1 $-1 $157 $146 $263 $265 forward $93 $-1 #
coedge $-1 -1 $-1 $146 $157 $266 $267 reversed $93 $-1 #
edge $268 -1 $-1 $269 -0.3109270871885029264 $270 0.9890729128114972291 $146 $271 forward @7 unknown #
pcurve $-1 -1 $-1 0 reversed { exppc nubs 1 open 2 
	-1 1 -0 1 
	0 1 
	0 0 
	2.279228077410871055e-15 
	spline forward { ref 2 } I I I I 
	} 0 0 #
DXID-attrib $-1 -1 $-1 $-1 $148 @10 ASM ENTITY @2 13 #
ellipse-curve $-1 -1 $-1 40.00000029802316703 38.99999979138383566 5.000000029802314394 4.27642353614752215e-49 -9.714451465470124659e-17 -1 0.4999999999999993894 3.081487911019571891e-33 -8.552847072294971943e-50 1 F 0.5235987755982952629 F 2.617993877991495744 #
coedge $-1 -1 $-1 $263 $262 $150 $221 reversed $144 $-1 #
edge $272 -1 $-1 $166 -0.6928203230275508107 $224 0 $150 $273 forward @7 unknown #
pcurve $-1 -1 $-1 0 reversed { exppc nubs 1 open 2 
	-0 1 0.6928203230275506996 1 
	0.9999999999999995559 1 
	0 0.999999999999999889 
	3.125012155735668386e-16 
	spline forward { ref 1 } I I I I 
	} 0 0 #
DXID-attrib $-1 -1 $-1 $-1 $152 @10 ASM ENTITY @2 12 #
vertex $-1 -1 $-1 $221 $274 #
straight-curve $-1 -1 $-1 40.43301299991539111 38.74999979138383566 5.000000029802314394 3.031088913245528538 -1.749999985098837918 0.9999999999999986677 F 0 F 1 #
point $-1 -1 $-1 40.43301299991539111 38.74999979138383566 5.000000029802314394 #
DXID-attrib $-1 -1 $-1 $-1 $158 @10 ASM ENTITY @1 8 #
straight-curve $-1 -1 $-1 40.00000029802316703 42.99999980628498975 6.000000029802312618 4.999999999999993783 8.66025403784437664 -8.412961752928086828e-16 F -0.6928203230275509217 F 0 #
coedge $-1 -1 $-1 $275 $266 $160 $230 reversed $211 $-1 #
edge $276 -1 $-1 $224 -0.6928203230275506996 $163 2.220446049250313081e-16 $160 $277 forward @7 unknown #
pcurve $-1 -1 $-1 0 reversed { exppc nubs 1 open 2 
	0 1 0.6928203230275506996 1 
	0.9999999999999996669 1 
	0 1 
	2.264854970235316424e-15 
	spline forward { ref 2 } I I I I 
	} 0 0 #
point $-1 -1 $-1 36.53589868288541709 36.99999980628499685 6.000000029802313506 #
point $-1 -1 $-1 40.00000029802316703 42.99999980628498975 6.000000029802312618 #
ATTRIB_CUSTOM-attrib $-1 -1 $-1 $-1 $173 @17 sketch_attrib_def 1 1 3 @13 110 0 0 0 1 1 #
coedge $-1 -1 $-1 $278 $173 $176 $239 forward $112 $-1 #
coedge $-1 -1 $-1 $173 $278 $180 $244 reversed $112 $-1 #
coedge $-1 -1 $-1 $176 $175 $-1 $279 forward $72 $-1 #
edge $-1 -1 $-1 $183 0 $280 0.0999999999999999778 $175 $281 forward @7 unknown #
edge $-1 -1 $-1 $240 0 $282 0.0999999999999999778 $176 $283 forward @7 unknown #
vertex $-1 -1 $-1 $177 $284 #
straight-curve $-1 -1 $-1 35.05463543594246545 37.9399308423692716 7.000000029802310841 4.999999999999996447 8.660254037844374864 -8.41296175292808387e-16 I I #
straight-curve $-1 -1 $-1 41.69536456405742797 43.56909596696812059 7.000000029802310841 4.99999999999999023 -8.66025403784437664 8.412961752928087814e-16 I I #
coedge $-1 -1 $-1 $181 $180 $-1 $285 forward $171 $-1 #
edge $-1 -1 $-1 $182 0 $286 0.0999999999999999778 $236 $287 forward @7 unknown #
point $-1 -1 $-1 46.49999999999992895 35.2472232800698464 7.00000002980231173 #
point $-1 -1 $-1 33.49999999999995026 35.2472232800698464 7.00000002980231173 #
point $-1 -1 $-1 39.99999999999994316 0.1750000298024687595 4.500000029802317947 #
DXID-attrib $-1 -1 $-1 $-1 $190 @10 ASM ENTITY @1 5 #
loop $-1 -1 $-1 $288 $289 $190 #
torus-surface $-1 -1 $-1 39.99999999999994316 38.67500002980241192 4.500000029802315282 4.27642353614752215e-49 -9.714451465470124659e-17 -1 35.99999999999995026 2.499999999999996891 -6.162975822039151309e-33 1 -9.714451465470124659e-17 forward_v I I I I #
vertex $-1 -1 $-1 $196 $290 #
straight-curve $-1 -1 $-1 37.25000016029309791 30.73643377291790557 2.000000029802318391 5.000000174865236957 -8.66025393688587819 8.412961654852443013e-16 I I #
straight-curve $-1 -1 $-1 39.99852262804510161 38.67585299085845918 1.000000029802318835 -8.633531493823419112 4.984571499581838872 0.7849719171507880677 F 0 F 1.273930924344016669 #
edge $-1 -1 $-1 $199 -0.6876477275761738728 $203 -0.6873522531886493425 $197 $291 forward @7 unknown #
point $-1 -1 $-1 40.00147737192034469 38.67585299091813056 1.000000029802318835 #
point $-1 -1 $-1 39.99852262804510161 38.67585299085845918 1.000000029802318835 #
straight-curve $-1 -1 $-1 42.06323861384545637 42.24692838153057295 1.000000029802318391 4.999999825134747944 8.660254138802871537 -8.412961851003726699e-16 F -3.955676875195604403 F 2.397442067516056152 #
point $-1 -1 $-1 40.00000000003439027 38.67329410763065312 1.000000029802318835 #
straight-curve $-1 -1 $-1 34.49999987176543925 45.02585287983394124 2.000000029802317059 -9.999999999999985789 -2.019169896939518663e-07 1.961512796435726614e-23 I I #
coedge $-1 -1 $-1 $260 $260 $292 $293 reversed $207 $-1 #
coedge $-1 -1 $-1 $266 $275 $-1 $294 forward $211 $-1 #
coedge $-1 -1 $-1 $220 $213 $275 $295 forward $144 $-1 #
coedge $-1 -1 $-1 $213 $220 $214 $265 reversed $144 $-1 #
edge $296 -1 $-1 $270 -0.3390729128114968183 $297 0.9609270871885029486 $213 $298 forward @7 unknown #
edge $299 -1 $-1 $270 0 $166 0.364539530157113767 $263 $300 forward @7 unknown #
coedge $-1 -1 $-1 $229 $261 $215 $267 forward $211 $-1 #
edge $301 -1 $-1 $269 -1.849195715668666986e-16 $163 0.3645395227351428957 $266 $302 forward @7 unknown #
DXID-attrib $-1 -1 $-1 $-1 $216 @10 ASM ENTITY @2 15 #
vertex $-1 -1 $-1 $216 $303 #
vertex $-1 -1 $-1 $216 $304 #
straight-curve $-1 -1 $-1 35.05463543594246545 37.9399308423692716 7.000000029802310841 4.999999999999996447 8.660254037844374864 -8.41296175292808387e-16 F -0.3109270871885029264 F 0.9890729128114972291 #
DXID-attrib $-1 -1 $-1 $-1 $221 @10 ASM ENTITY @2 11 #
straight-curve $-1 -1 $-1 43.46410191316091698 36.99999980628499685 6.000000029802313506 4.999999999999993783 -8.66025403784437664 8.412961752928086828e-16 F -0.6928203230275508107 F 0 #
point $-1 -1 $-1 43.46410191316091698 36.99999980628499685 6.000000029802313506 #
coedge $-1 -1 $-1 $261 $229 $262 $295 reversed $211 $-1 #
DXID-attrib $-1 -1 $-1 $-1 $230 @10 ASM ENTITY @2 14 #
straight-curve $-1 -1 $-1 36.53589868288541709 36.99999980628499685 6.000000029802313506 -9.999999999999987566 -6.162975822039143782e-32 1.710569414458994275e-48 F -0.6928203230275506996 F 2.220446049250313081e-16 #
coedge $-1 -1 $-1 $236 $235 $-1 $305 forward $112 $-1 #
edge $306 -1 $-1 $280 -1.300000000000000488 $282 -0 $237 $307 forward @7 unknown #
vertex $-1 -1 $-1 $238 $308 #
straight-curve $-1 -1 $-1 33.49999999999995026 35.2472232800698464 7.00000002980231173 4.27642353614751668e-48 -9.71445146547011184e-16 -9.999999999999987566 I I #
vertex $-1 -1 $-1 $279 $309 #
straight-curve $-1 -1 $-1 39.99999999999994316 46.50555352926753727 7.000000029802310841 4.27642353614751668e-48 -9.71445146547011184e-16 -9.999999999999987566 I I #
point $-1 -1 $-1 39.99999999999994316 46.50555352926753727 7.000000029802310841 #
edge $310 -1 $-1 $286 -1.300000000000000044 $280 -3.792600505870248728e-32 $243 $311 forward @7 unknown #
vertex $-1 -1 $-1 $305 $312 #
straight-curve $-1 -1 $-1 46.49999999999992895 35.2472232800698464 7.00000002980231173 4.27642353614751668e-48 -9.71445146547011184e-16 -9.999999999999987566 I I #
loop $-1 -1 $-1 $-1 $292 $190 #
coedge $-1 -1 $-1 $289 $289 $-1 $313 forward $249 $-1 #
point $-1 -1 $-1 28.99999987176545346 45.0258527687795933 2.000000029802317059 #
straight-curve $-1 -1 $-1 43.4367613861716535 32.7206490509262764 1.000000029802319279 5.000000174865236957 -8.66025393688587819 8.412961654852443013e-16 F -3.497442042512421523 F 2.855676937809700444 #
coedge $-1 -1 $-1 $292 $292 $260 $293 forward $288 $-1 #
edge $-1 -1 $-1 $314 -3.141592653589793116 $314 3.141592653589793116 $260 $315 forward @7 tangent #
edge $316 -1 $-1 $297 -0.3249999999999997335 $269 0.9750000000000003109 $261 $317 forward @7 unknown #
edge $318 -1 $-1 $297 0 $224 0.3645394730961749596 $275 $319 forward @7 unknown #
DXID-attrib $-1 -1 $-1 $-1 $264 @10 ASM ENTITY @2 18 #
vertex $-1 -1 $-1 $264 $320 #
straight-curve $-1 -1 $-1 41.69536456405742797 43.56909596696812059 7.000000029802310841 4.99999999999999023 -8.66025403784437664 8.412961752928087814e-16 F -0.3390729128114968183 F 0.9609270871885029486 #
DXID-attrib $-1 -1 $-1 $-1 $265 @10 ASM ENTITY @2 16 #
straight-curve $-1 -1 $-1 39.99999999999994316 46.50555352926753727 7.000000029802310841 8.175333394093498786e-07 -9.616388437960846858 -2.743186725371061119 F 0 F 0.364539530157113767 #
DXID-attrib $-1 -1 $-1 $-1 $267 @10 ASM ENTITY @2 17 #
straight-curve $-1 -1 $-1 33.49999999999995026 35.2472232800698464 7.00000002980231173 8.328037136020515874 4.808193397149511661 -2.74318678122194104 F -1.849195715668666986e-16 F 0.3645395227351428957 #
point $-1 -1 $-1 33.49999999999995026 35.2472232800698464 7.00000002980231173 #
point $-1 -1 $-1 39.99999999999994316 46.50555352926753727 7.000000029802310841 #
edge $321 -1 $-1 $282 -1.299999999999999822 $286 -0 $278 $322 forward @7 unknown #
DXID-attrib $-1 -1 $-1 $-1 $279 @10 ASM ENTITY @2 11 #
straight-curve $-1 -1 $-1 39.99999999999994316 46.50555352926753727 6.00000002980231173 4.999999999999994671 8.660254037844373087 -8.412961752928082884e-16 I I #
point $-1 -1 $-1 33.49999999999995026 35.2472232800698464 6.000000029802313506 #
point $-1 -1 $-1 39.99999999999994316 46.50555352926753727 6.00000002980231173 #
DXID-attrib $-1 -1 $-1 $-1 $285 @10 ASM ENTITY @2 15 #
straight-curve $-1 -1 $-1 33.49999999999995026 35.2472232800698464 6.000000029802313506 -9.999999999999987566 1.70803542250023851e-15 -1.659262721318232669e-31 I I #
point $-1 -1 $-1 46.49999999999992895 35.2472232800698464 6.000000029802313506 #
edge $323 -1 $-1 $324 -3.141592653589793116 $324 3.141592653589793116 $289 $325 forward @7 unknown #
vertex $-1 -1 $-1 $293 $326 #
ellipse-curve $-1 -1 $-1 39.99999999999994316 38.67500002980241192 2.000000029802317503 -4.27642353614752215e-49 9.714451465470124659e-17 1 35.99999999999995026 2.218671295934091762e-31 -6.158049892052379875e-48 1 I I #
DXID-attrib $-1 -1 $-1 $-1 $294 @10 ASM ENTITY @2 20 #
straight-curve $-1 -1 $-1 43.24999999999994316 35.2472232800698464 7.00000002980231173 -9.999999999999987566 1.70803542250023851e-15 -1.659262721318232669e-31 F -0.3249999999999997335 F 0.9750000000000003109 #
DXID-attrib $-1 -1 $-1 $-1 $295 @10 ASM ENTITY @2 19 #
straight-curve $-1 -1 $-1 46.49999999999992895 35.2472232800698464 7.00000002980231173 -8.328036634973873475 4.808194051876301778 -2.74318715475888375 F 0 F 0.3645394730961749596 #
point $-1 -1 $-1 46.49999999999992895 35.2472232800698464 7.00000002980231173 #
DXID-attrib $-1 -1 $-1 $-1 $305 @10 ASM ENTITY @2 13 #
straight-curve $-1 -1 $-1 46.49999999999992895 35.2472232800698464 6.000000029802313506 4.99999999999999023 -8.66025403784437664 8.412961752928087814e-16 I I #
DXID-attrib $-1 -1 $-1 $-1 $313 @10 ASM ENTITY @2 16 #
vertex $-1 -1 $-1 $313 $327 #
ellipse-curve $-1 -1 $-1 39.99999999999994316 38.67500002980241192 4.500000029802315282 4.27642353614752215e-49 -9.714451465470124659e-17 -1 -2.372745691485070192e-31 38.49999999999995026 -3.74006381420599294e-15 1 I I #
point $-1 -1 $-1 3.999999999999991118 38.67500002980240481 2.000000029802317503 #
point $-1 -1 $-1 39.99999999999994316 0.1750000298024687595 4.500000029802317947 #
End-of-ACIS-data 