22700 0 5 4           
30 Autodesk Translation Framework 20 ASM 227.1.1.65535 NT 24 Thu Apr 29 18:01:40 2021 
1 9.999999999999999547e-07 1.000000000000000036e-10 
asmheader $-1 -1 @13 227.1.1.65535 #
body $5 -1 $-1 $6 $-1 $7 #
body $8 -1 $-1 $9 $-1 $10 #
body $11 -1 $-1 $12 $-1 $13 #
body $14 -1 $-1 $15 $-1 $16 #
rgb_color-st-attrib $-1 -1 $17 $-1 $1 0.627450980392156854 0.627450980392156854 0.627450980392156854 1 #
lump $-1 -1 $-1 $-1 $18 $1 #
transform $-1 -1 1 0 0 0 1 0 0 0 1 0 0 0 1 no_rotate no_reflect no_shear #
rgb_color-st-attrib $-1 -1 $19 $-1 $2 0.627450980392156854 0.627450980392156854 0.627450980392156854 1 #
lump $-1 -1 $-1 $-1 $20 $2 #
transform $-1 -1 1 0 0 0 1 0 0 0 1 0 0 0 1 no_rotate no_reflect no_shear #
rgb_color-st-attrib $-1 -1 $21 $-1 $3 0.627450980392156854 0.627450980392156854 0.627450980392156854 1 #
lump $-1 -1 $-1 $-1 $22 $3 #
transform $-1 -1 1 0 0 0 1 0 0 0 1 0 0 0 1 no_rotate no_reflect no_shear #
rgb_color-st-attrib $-1 -1 $23 $-1 $4 0.627450980392156854 0.627450980392156854 0.627450980392156854 1 #
lump $-1 -1 $-1 $-1 $24 $4 #
transform $-1 -1 1 0 0 0 1 0 0 0 1 0 0 0 1 no_rotate no_reflect no_shear #
ATTRIB_CUSTOM-attrib $-1 -1 $-1 $5 $1 @20 Timestamp_attrib_def 1 1592500431437035 #
shell $-1 -1 $-1 $-1 $-1 $25 $-1 $6 #
ATTRIB_CUSTOM-attrib $-1 -1 $-1 $8 $2 @20 Timestamp_attrib_def 1 1592500431427660 #
shell $-1 -1 $-1 $-1 $-1 $26 $-1 $9 #
ATTRIB_CUSTOM-attrib $-1 -1 $-1 $11 $3 @20 Timestamp_attrib_def 1 1592500431507317 #
shell $-1 -1 $-1 $-1 $-1 $27 $-1 $12 #
ATTRIB_CUSTOM-attrib $-1 -1 $-1 $14 $4 @20 Timestamp_attrib_def 1 1592500431507317 #
shell $-1 -1 $-1 $-1 $-1 $28 $-1 $15 #
face $29 -1 $-1 $-1 $30 $18 $-1 $31 forward double out #
face $32 -1 $-1 $33 $34 $20 $-1 $35 reversed double out #
face $36 -1 $-1 $37 $38 $22 $-1 $39 forward double out #
face $40 -1 $-1 $41 $42 $24 $-1 $43 forward double out #
DXID-attrib $-1 -1 $-1 $-1 $25 @10 ASM ENTITY @1 0 #
loop $-1 -1 $-1 $-1 $44 $25 #
plane-surface $-1 -1 $-1 40.00000029802316703 38.99999979138379302 5.000000029802317059 -8.980489425909771294e-49 9.714451465470122194e-17 0.9999999999999996669 9.999999999999987566 6.162975822039143782e-32 -1.710569414458994275e-48 forward_v I I I I #
DXID-attrib $-1 -1 $-1 $-1 $26 @10 ASM ENTITY @1 0 #
face $45 -1 $-1 $46 $47 $20 $-1 $48 reversed double out #
loop $-1 -1 $-1 $-1 $49 $26 #
spline-surface $-1 -1 $-1 forward { loft_spl_sur 22601 2 
	0 
	1 1 ellipse 40.00000029802316703 38.99999979138379302 5.000000029802317059 8.980489425909771294e-49 -9.714451465470122194e-17 -0.9999999999999996669 0.4999999999999994449 3.081487911019572233e-33 -8.552847072294971943e-50 1 F 2.617993877991495744 F 4.712388980384689674 null_surface nullbs F -1 213 1 1 0 1 2.617993877991495744 4.712388980384689674 2.09439510239319393 2.09439510239319393 F null_curve 0 -1 
	1 
	1 1 straight 40.00000029802316703 42.99999980628496132 6.000000029802315282 4.999999999999993783 8.660254037844399733 -8.412961752928090772e-16 F -0.6928203230275506996 F 0 null_surface nullbs F -1 213 1 1 0 1 -0.6928203230275506996 1.538370149106850659e-16 0.6928203230275508107 0.6928203230275508107 F null_curve 0 -1 
	0 
	F 1 F 0 F 1 F 0 F F F F 0 0 full nubs 3 3 open open none none 3 2 
	0 3 0.50610719267131421 3 1 3 
	0 3 1 3 
	39.56698759613095007 38.74999979138379302 5.000000029802317059 
	39.47865522732955412 38.90299594210073053 5.000000029802317059 
	39.47993860468292127 39.10366398304290669 5.000000029802317059 
	39.57022064889866897 39.25551780092210663 5.000000029802317059 
	39.65832382726635785 39.40370678045444919 5.000000029802317059 
	39.82759918522710052 39.49999979138380013 5.000000029802317059 
	40.00000029802316703 39.49999979138380013 5.000000029802317059 
	38.55662462504911048 38.16666646301751342 5.333333363135649208 
	38.69253712846656867 38.60606869194301538 5.333333363135649208 
	38.88819346265387367 39.07725218101867881 5.333333363135649208 
	39.14318224141609903 39.51589285471902002 5.333333363135649208 
	39.39201712383591314 39.94394737929303574 5.333333363135649208 
	39.69496679265110117 40.33740459146505941 5.333333363135649208 
	40.00000029802316703 40.66666646301752053 5.333333363135649208 
	37.54626165396726378 37.58333313465123382 5.666666696468983133 
	37.90641902960358323 38.30914144178530023 5.666666696468983133 
	38.29644832062481896 39.05084037899444382 5.666666696468983133 
	38.71614383393352909 39.77626790851593341 5.666666696468983133 
	39.12571042040546843 40.48418797813162939 5.666666696468983133 
	39.56233440007509472 41.1748093915463258 5.666666696468983133 
	40.00000029802316703 41.83333313465124093 5.666666696468983133 
	36.53589868288541709 36.99999980628494711 6.00000002980231617 
	37.12030093074059778 38.01221419162758508 6.00000002980231617 
	37.70470317859577847 39.02442857697020884 6.00000002980231617 
	38.28910542645095205 40.0366429623128397 6.000000029802315282 
	38.85940371697502371 41.02442857697021594 6.000000029802315282 
	39.42970200749909537 42.01221419162759219 6.000000029802315282 
	40.00000029802316703 42.99999980628496132 6.000000029802315282 
	0.001613227232475406394 
	
	0 
	0 
	0 
	0 
	0 
	0 
	F } I I I I #
DXID-attrib $-1 -1 $-1 $-1 $27 @10 ASM ENTITY @1 0 #
face $50 -1 $-1 $51 $52 $22 $-1 $53 reversed double out #
loop $-1 -1 $-1 $54 $55 $27 #
torus-surface $-1 -1 $-1 39.99999999999994316 38.67500002980237639 4.50000002980231617 8.980489425909771294e-49 -9.714451465470122194e-17 -0.9999999999999996669 35.99999999999999289 2.499999999999999556 -9.244463733058741674e-33 1 -9.714451465470125892e-17 forward_v I I I I #
DXID-attrib $-1 -1 $-1 $-1 $28 @10 ASM ENTITY @1 0 #
face $56 -1 $-1 $57 $58 $24 $-1 $59 forward double out #
loop $-1 -1 $-1 $-1 $60 $28 #
plane-surface $-1 -1 $-1 44.81286930291535953 40.65942843705025211 1.500000029802317725 0.1347216343002840822 -0.07778156820192404231 -0.9878259507117179705 -9.215938414840006289e-32 9.969143349963363931 -0.7849718898670877687 forward_v I I I I #
coedge $-1 -1 $-1 $44 $44 $-1 $61 reversed $30 0 $-1 #
DXID-attrib $-1 -1 $-1 $-1 $33 @10 ASM ENTITY @1 1 #
face $62 -1 $-1 $63 $64 $20 $-1 $65 reversed double out #
loop $-1 -1 $-1 $-1 $66 $33 #
spline-surface $-1 -1 $-1 forward { loft_spl_sur 22601 2 
	0 
	1 1 ellipse 40.00000029802316703 38.99999979138379302 5.000000029802317059 8.980489425909771294e-49 -9.714451465470122194e-17 -0.9999999999999996669 0.4999999999999994449 3.081487911019572233e-33 -8.552847072294971943e-50 1 F -1.570796326794896558 F 0.5235987755982952629 null_surface nullbs F -1 213 1 1 0 1 -1.570796326794896558 0.5235987755982952629 2.09439510239319171 2.09439510239319171 F null_curve 0 -1 
	1 
	1 1 straight 43.46410191316091698 36.99999980628494711 6.00000002980231617 4.999999999999993783 -8.660254037844399733 8.412961752928090772e-16 F -0.6928203230275506996 F 0 null_surface nullbs F -1 213 1 1 0 1 -0.6928203230275506996 1.538370149106850659e-16 0.6928203230275508107 0.6928203230275508107 F null_curve 0 -1 
	0 
	F 1 F 0 F 1 F 0 F F F F 0 0 full nubs 3 3 open open none none 3 2 
	0 3 0.50610719267131421 3 1 3 
	0 3 1 3 
	40.00000029802316703 39.49999979138380013 5.000000029802317059 
	40.17666503562595892 39.49999979138380013 5.000000029802317059 
	40.34980696813286016 39.39855433352204983 5.000000029802317059 
	40.43617520997003112 39.24444088078601567 5.000000029802317059 
	40.52045904162208245 39.09404680039928337 5.000000029802317059 
	40.51921355631341726 38.89930353470590063 5.000000029802317059 
	40.43301299991539111 38.74999979138379302 5.000000029802317059 
	40.00000029802316703 40.66666646301752053 5.333333363135649208 
	40.31257753904341712 40.32926166790331024 5.333333363135649208 
	40.62280624333308054 39.92422656754793309 5.333333363135649208 
	40.87518582050958571 39.48407947060970002 5.333333363135649208 
	41.12147447178564619 39.05455487879942211 5.333333363135649208 
	41.31074357842122424 38.59546416345137487 5.333333363135649208 
	41.4433759709972307 38.16666646301751342 5.333333363135649208 
	40.00000029802316703 41.83333313465123382 5.666666696468983133 
	40.44849004246088953 41.15852354442282035 5.666666696468983133 
	40.89580551853330803 40.44989880157381634 5.666666696468983133 
	41.3141964310491403 39.72371806043338438 5.666666696468983133 
	41.72248990194920992 39.01506295719956086 5.666666696468983133 
	42.10227360052904544 38.29162479219684911 5.666666696468983133 
	42.45373894207907028 37.58333313465123382 5.666666696468983133 
	40.00000029802316703 42.99999980628496132 6.000000029802315282 
	40.58440254587834772 41.98778542094233046 6.000000029802315282 
	41.16880479373352131 40.9755710355996996 6.000000029802315282 
	41.75320704158869489 39.96335665025706874 6.000000029802315282 
	42.32350533211277366 38.9755710355996996 6.00000002980231617 
	42.89380362263685242 37.98778542094232336 6.00000002980231617 
	43.46410191316091698 36.99999980628494711 6.00000002980231617 
	0.001613227232474389412 
	
	0 
	0 
	0 
	0 
	0 
	0 
	F } I I I I #
coedge $-1 -1 $-1 $67 $68 $-1 $69 reversed $34 0 $70 #
DXID-attrib $-1 -1 $-1 $-1 $37 @10 ASM ENTITY @1 1 #
face $71 -1 $-1 $72 $73 $22 $-1 $74 reversed double out #
loop $-1 -1 $-1 $75 $76 $37 #
plane-surface $-1 -1 $-1 39.99999999999994316 38.67500002980237639 7.000000029802315282 8.980489425909771294e-49 -9.714451465470122194e-17 -0.9999999999999996669 9.999999999999987566 6.162975822039143782e-32 -1.710569414458994275e-48 forward_v I I I I #
loop $-1 -1 $-1 $-1 $77 $27 #
coedge $-1 -1 $-1 $55 $55 $78 $79 forward $38 0 $-1 #
DXID-attrib $-1 -1 $-1 $-1 $41 @10 ASM ENTITY @1 1 #
face $80 -1 $-1 $81 $82 $24 $-1 $83 forward double out #
loop $-1 -1 $-1 $-1 $84 $41 #
plane-surface $-1 -1 $-1 34.49999983969820505 41.85085287983390856 1.500000029802317503 -3.141084130854745235e-09 0.1555631418443652325 -0.9878259507117179705 -9.131921175928765541e-32 9.878259507117196137 1.55563141844364905 forward_v I I I I #
coedge $-1 -1 $-1 $85 $86 $87 $88 reversed $42 0 $-1 #
edge $89 -1 $-1 $90 -3.141592653589793116 $90 3.141592653589793116 $44 $91 forward @7 unknown #
DXID-attrib $-1 -1 $-1 $-1 $46 @10 ASM ENTITY @1 2 #
face $92 -1 $-1 $93 $94 $20 $-1 $95 forward double out #
loop $-1 -1 $-1 $-1 $96 $46 #
spline-surface $-1 -1 $-1 forward { loft_spl_sur 22601 2 
	0 
	1 1 ellipse 40.00000029802316703 38.99999979138379302 5.000000029802317059 8.980489425909771294e-49 -9.714451465470122194e-17 -0.9999999999999996669 0.4999999999999994449 3.081487911019572233e-33 -8.552847072294971943e-50 1 F 0.5235987755982952629 F 2.617993877991495744 null_surface nullbs F -1 213 1 1 0 1 0.5235987755982952629 2.617993877991495744 2.094395102393200592 2.094395102393200592 F null_curve 0 -1 
	1 
	1 1 straight 36.53589868288541709 36.99999980628494711 6.00000002980231617 -9.999999999999987566 -6.162975822039143782e-32 1.710569414458994275e-48 F -0.6928203230275506996 F -0 null_surface nullbs F -1 213 1 1 0 1 -0.6928203230275506996 1.538370149106850659e-16 0.6928203230275508107 0.6928203230275508107 F null_curve 0 -1 
	0 
	F 1 F 0 F 1 F 0 F F F F 0 0 full nubs 3 3 open open none none 3 2 
	0 3 0.50610719267131421 3 1 3 
	0 3 1 3 
	40.43301299991539111 38.74999979138379302 5.000000029802317059 
	40.34468063111398806 38.59700364066686262 5.000000029802317059 
	40.17025532125371967 38.49778105758642965 5.000000029802317059 
	39.99360503520080101 38.50004069244325677 5.000000029802317059 
	39.8212180251810679 38.50224579329765362 5.000000029802317059 
	39.65318815252898332 38.60069604806169252 5.000000029802317059 
	39.56698759613095007 38.74999979138379302 5.000000029802317059 
	41.4433759709972307 38.16666646301751342 5.333333363135649208 
	40.99488622655951531 38.06466902920622886 5.333333363135649208 
	40.48900118808255399 37.99852064048593547 5.333333363135649208 
	39.98163283214381636 38.00002706372382022 5.333333363135649208 
	39.48650929844794177 38.00149713096008952 5.333333363135649208 
	38.99429052299717569 38.06713063413611309 5.333333363135649208 
	38.55662462504911048 38.16666646301751342 5.333333363135649208 
	42.45373894207907028 37.58333313465123382 5.666666696468983133 
	41.64509182200504256 37.53233441774558798 5.666666696468983133 
	40.80774705491137411 37.4992602233854484 5.666666696468983133 
	39.96966062908683881 37.50001343500439077 5.666666696468983133 
	39.15180057171482986 37.50074846862251832 5.666666696468983133 
	38.33539289346536805 37.53356522021053365 5.666666696468983133 
	37.54626165396726378 37.58333313465123382 5.666666696468983133 
	43.46410191316091698 36.99999980628494711 6.00000002980231617 
	42.2952974174505627 36.99999980628494711 6.00000002980231617 
	41.12649292174020843 36.99999980628494711 6.00000002980231617 
	39.95768842602985416 36.99999980628494711 6.00000002980231617 
	38.81709184498170373 36.99999980628494711 6.00000002980231617 
	37.67649526393356041 36.99999980628494711 6.00000002980231617 
	36.53589868288541709 36.99999980628494711 6.00000002980231617 
	0.001613227232473270082 
	
	0 
	0 
	0 
	0 
	0 
	0 
	F } I I I I #
coedge $-1 -1 $-1 $97 $98 $-1 $99 reversed $47 0 $100 #
coedge $-1 -1 $-1 $101 $49 $102 $103 forward $34 0 $104 #
coedge $-1 -1 $-1 $49 $101 $97 $105 reversed $34 0 $106 #
edge $107 -1 $-1 $108 2.617993877991495744 $109 4.712388980384689674 $49 $110 forward @7 unknown #
pcurve $-1 -1 $-1 0 reversed { exp_par_cur nubs 1 open 2 
	2.617993877991495744 1 4.712388980384689674 1 
	0 0 
	1 1.038426144098012088e-17 
	0 
	spline forward { ref 0 } I I I I 
	} 0 0 #
DXID-attrib $-1 -1 $-1 $-1 $51 @10 ASM ENTITY @1 2 #
face $111 -1 $-1 $112 $113 $22 $-1 $114 reversed double out #
loop $-1 -1 $-1 $-1 $115 $51 #
plane-surface $-1 -1 $-1 33.49999999999995026 35.24722328006980376 7.000000029802315282 -0.8660254037844375974 0.5000000000000011102 -4.85722573273506233e-17 4.999999999999997335 8.66025403784439618 -8.412961752928087814e-16 forward_v I I I I #
loop $-1 -1 $-1 $-1 $78 $37 #
coedge $-1 -1 $-1 $116 $117 $118 $119 forward $52 0 $-1 #
coedge $-1 -1 $-1 $77 $77 $-1 $120 reversed $54 0 $-1 #
coedge $-1 -1 $-1 $78 $78 $55 $79 reversed $75 0 $-1 #
edge $-1 -1 $-1 $121 -3.141592653589793116 $121 3.141592653589793116 $78 $122 forward @7 tangent #
DXID-attrib $-1 -1 $-1 $-1 $57 @10 ASM ENTITY @1 2 #
face $123 -1 $-1 $124 $125 $24 $-1 $126 reversed double out #
loop $-1 -1 $-1 $-1 $127 $57 #
plane-surface $-1 -1 $-1 40.68713076121038341 31.1331489954065006 1.500000029802318613 -0.1347216311591999394 -0.07778157364244142613 -0.9878259507117179705 -9.21593841086798638e-32 9.969143345666719114 -0.7849719444344918085 forward_v I I I I #
coedge $-1 -1 $-1 $128 $129 $130 $131 forward $58 0 $-1 #
coedge $-1 -1 $-1 $132 $60 $133 $134 forward $42 0 $-1 #
coedge $-1 -1 $-1 $60 $132 $129 $135 forward $42 0 $-1 #
coedge $-1 -1 $-1 $136 $137 $60 $88 forward $138 0 $-1 #
edge $-1 -1 $-1 $139 -1.649999999999999467 $140 0.5499999999999994893 $87 $141 forward @7 unknown #
DXID-attrib $-1 -1 $-1 $-1 $61 @10 ASM ENTITY @1 1 #
vertex $-1 -1 $-1 $61 2 $142 #
ellipse-curve $-1 -1 $-1 40.00000029802316703 38.99999979138379302 5.000000029802317059 8.980489425909771294e-49 -9.714451465470122194e-17 -0.9999999999999996669 0.4999999999999994449 3.081487911019572233e-33 -8.552847072294971943e-50 1 I I #
DXID-attrib $-1 -1 $-1 $-1 $63 @10 ASM ENTITY @1 3 #
face $143 -1 $-1 $144 $145 $20 $-1 $146 forward double out #
loop $-1 -1 $-1 $-1 $147 $63 #
plane-surface $-1 -1 $-1 33.49999999999995026 35.24722328006980376 7.000000029802315282 -0.4291554266335977363 0.2477730010910971226 -0.8685816943277386848 -8.889835514278547938e-32 9.616388544516624393 2.743186351834250747 forward_v I I I I #
coedge $-1 -1 $-1 $148 $102 $-1 $149 reversed $64 0 $150 #
coedge $-1 -1 $-1 $151 $66 $68 $105 forward $47 0 $152 #
coedge $-1 -1 $-1 $66 $151 $148 $153 reversed $47 0 $154 #
edge $155 -1 $-1 $109 -1.570796326794896558 $156 0.5235987755982952629 $66 $157 forward @7 unknown #
pcurve $-1 -1 $-1 0 reversed { exp_par_cur nubs 1 open 2 
	-1.570796326794896558 1 0.5235987755982952629 1 
	0 0 
	0.9999999999999996669 1.408790799006784298e-15 
	4.833236779191187432e-15 
	spline forward { ref 1 } I I I I 
	} 0 0 #
coedge $-1 -1 $-1 $68 $67 $158 $159 forward $34 0 $160 #
coedge $-1 -1 $-1 $96 $161 $67 $103 reversed $64 0 $162 #
edge $163 -1 $-1 $108 0 $164 1 $102 $165 forward @7 unknown #
pcurve $-1 -1 $-1 0 reversed { exp_par_cur nubs 1 open 2 
	-1 1 0 1 
	0 1 
	0 0 
	2.262237056009998331e-15 
	spline forward { ref 0 } I I I I 
	} 0 0 #
edge $166 -1 $-1 $109 0 $167 1 $97 $168 forward @7 unknown #
pcurve $-1 -1 $-1 0 reversed { exp_par_cur nubs 1 open 2 
	0 1 1 1 
	1 0 
	1 0.9999999999999996669 
	2.33343889686801721e-15 
	spline forward { ref 0 } I I I I 
	} 0 0 #
DXID-attrib $-1 -1 $-1 $-1 $69 @10 ASM ENTITY @1 6 #
vertex $-1 -1 $-1 $69 0 $169 #
vertex $-1 -1 $-1 $69 1 $170 #
ellipse-curve $-1 -1 $-1 40.00000029802316703 38.99999979138379302 5.000000029802317059 8.980489425909771294e-49 -9.714451465470122194e-17 -0.9999999999999996669 0.4999999999999994449 3.081487911019572233e-33 -8.552847072294971943e-50 1 F 2.617993877991495744 F 4.712388980384689674 #
DXID-attrib $-1 -1 $-1 $-1 $72 @10 ASM ENTITY @1 3 #
face $171 -1 $-1 $-1 $172 $22 $-1 $173 reversed double out #
loop $-1 -1 $-1 $-1 $174 $72 #
plane-surface $-1 -1 $-1 39.99999999999995026 46.50555352926751596 7.000000029802314394 0.8660254037844379305 0.5000000000000004441 -4.857225732735056167e-17 4.999999999999991118 -8.660254037844399733 8.412961752928091758e-16 forward_v I I I I #
coedge $175 -1 $-1 $176 $177 $116 $178 reversed $73 0 $-1 #
coedge $-1 -1 $-1 $117 $76 $115 $178 forward $52 0 $-1 #
coedge $-1 -1 $-1 $76 $116 $174 $179 forward $52 0 $-1 #
coedge $180 -1 $-1 $181 $182 $76 $119 reversed $172 0 $-1 #
edge $-1 -1 $-1 $183 -0.3249999999999997335 $184 0.9750000000000003109 $76 $185 forward @7 unknown #
edge $186 -1 $-1 $187 -3.141592653589793116 $187 3.141592653589793116 $77 $188 forward @7 unknown #
vertex $-1 -1 $-1 $79 0 $189 #
ellipse-curve $-1 -1 $-1 39.99999999999994316 38.67500002980237639 7.000000029802315282 8.980489425909771294e-49 -9.714451465470122194e-17 -0.9999999999999996669 35.99999999999995737 2.218671295934091324e-31 -6.158049892052378659e-48 1 I I #
DXID-attrib $-1 -1 $-1 $-1 $81 @10 ASM ENTITY @1 3 #
face $190 -1 $-1 $191 $138 $24 $-1 $192 forward double out #
loop $-1 -1 $-1 $-1 $193 $81 #
plane-surface $-1 -1 $-1 39.99999987176543215 35.49957366031377148 1.000000029802318391 -8.980489425909771294e-49 9.714451465470122194e-17 0.9999999999999996669 9.244463733058755085e-32 -10.00000000000001421 9.714451465470117757e-16 forward_v I I I I #
coedge $-1 -1 $-1 $194 $133 $137 $195 reversed $82 0 $-1 #
coedge $-1 -1 $-1 $196 $84 $194 $197 forward $58 0 $-1 #
coedge $-1 -1 $-1 $84 $196 $86 $135 reversed $58 0 $-1 #
coedge $-1 -1 $-1 $193 $198 $84 $131 reversed $125 0 $-1 #
edge $-1 -1 $-1 $199 -0.5501477468113505909 $200 -0.5498522724238258386 $130 $201 forward @7 unknown #
coedge $-1 -1 $-1 $86 $85 $193 $202 forward $42 0 $-1 #
coedge $-1 -1 $-1 $127 $203 $85 $134 reversed $82 0 $-1 #
edge $-1 -1 $-1 $139 0 $204 1.273930924344016447 $85 $205 forward @7 unknown #
edge $-1 -1 $-1 $199 0 $140 1.273930924344016002 $86 $206 forward @7 unknown #
coedge $-1 -1 $-1 $137 $87 $196 $207 forward $138 0 $-1 #
coedge $-1 -1 $-1 $87 $136 $127 $195 forward $138 0 $-1 #
loop $-1 -1 $-1 $208 $87 $124 #
vertex $-1 -1 $-1 $88 0 $209 #
vertex $-1 -1 $-1 $88 1 $210 #
straight-curve $-1 -1 $-1 48.24999996794130652 40.26271343665536051 2.000000029802317503 4.999999825134747944 8.66025413880289463 -8.412961851003730643e-16 I I #
point $-1 -1 $-1 39.50000029802316703 38.99999979138379302 5.000000029802317059 #
DXID-attrib $-1 -1 $-1 $-1 $93 @10 ASM ENTITY @1 4 #
face $211 -1 $-1 $-1 $212 $20 $-1 $213 forward double out #
loop $-1 -1 $-1 $-1 $214 $93 #
plane-surface $-1 -1 $-1 39.99999999999995026 46.50555352926751596 7.000000029802314394 0.4291555219834611856 0.2477730561413660215 -0.8685816315128186416 -8.88983531726841381e-32 9.616388331405145706 2.74318709890798651 forward_v I I I I #
coedge $-1 -1 $-1 $215 $216 $-1 $217 forward $94 0 $-1 #
coedge $-1 -1 $-1 $161 $96 $98 $153 forward $64 0 $218 #
edge $219 -1 $-1 $156 0.5235987755982952629 $108 2.617993877991495744 $96 $220 forward @7 unknown #
pcurve $-1 -1 $-1 0 reversed { exp_par_cur nubs 1 open 2 
	0.5235987755982952629 1 2.617993877991495744 1 
	0 0 
	1 5.497534288738813626e-18 
	0 
	spline forward { ref 2 } I I I I 
	} 0 0 #
coedge $-1 -1 $-1 $98 $97 $221 $222 forward $47 0 $223 #
pcurve $-1 -1 $-1 0 reversed { exp_par_cur nubs 1 open 2 
	-1 1 -0 1 
	0 1 
	0 0 
	2.33343889686801721e-15 
	spline forward { ref 1 } I I I I 
	} 0 0 #
edge $224 -1 $-1 $156 0 $225 1 $148 $226 forward @7 unknown #
pcurve $-1 -1 $-1 0 reversed { exp_par_cur nubs 1 open 2 
	0 1 1 1 
	1 0 
	1 0.9999999999999986677 
	5.340884772615729496e-15 
	spline forward { ref 1 } I I I I 
	} 0 0 #
DXID-attrib $-1 -1 $-1 $-1 $99 @10 ASM ENTITY @2 10 #
vertex $-1 -1 $-1 $99 1 $227 #
ellipse-curve $-1 -1 $-1 40.00000029802316703 38.99999979138379302 5.000000029802317059 8.980489425909771294e-49 -9.714451465470122194e-17 -0.9999999999999996669 0.4999999999999994449 3.081487911019572233e-33 -8.552847072294971943e-50 1 F -1.570796326794896558 F 0.5235987755982952629 #
coedge $-1 -1 $-1 $216 $215 $101 $159 reversed $94 0 $-1 #
edge $228 -1 $-1 $164 -0.6928203230275509217 $167 0 $101 $229 forward @7 unknown #
pcurve $-1 -1 $-1 0 reversed { exp_par_cur nubs 1 open 2 
	-0 1 0.6928203230275506996 1 
	1 1 
	2.619388525710126e-16 1 
	3.170141816583210256e-15 
	spline forward { ref 0 } I I I I 
	} 0 0 #
coedge $-1 -1 $-1 $102 $148 $230 $231 forward $64 0 $232 #
pcurve $-1 -1 $-1 0 reversed { exp_par_cur nubs 1 open 2 
	0 1 1 1 
	1 0 
	1 0.999999999999999778 
	3.244596751041641226e-15 
	spline forward { ref 2 } I I I I 
	} 0 0 #
DXID-attrib $-1 -1 $-1 $-1 $103 @10 ASM ENTITY @1 7 #
vertex $-1 -1 $-1 $103 1 $233 #
straight-curve $-1 -1 $-1 39.56698759613095007 38.74999979138379302 5.000000029802317059 -3.031088913245533423 -1.749999985098842581 0.9999999999999994449 F 0 F 1 #
DXID-attrib $-1 -1 $-1 $-1 $105 @10 ASM ENTITY @1 9 #
vertex $-1 -1 $-1 $159 1 $234 #
straight-curve $-1 -1 $-1 40.00000029802316703 39.49999979138380013 5.000000029802317059 -3.235562320345886678e-32 3.500000014901163858 0.9999999999999991118 F 0 F 1 #
point $-1 -1 $-1 39.56698759613095007 38.74999979138379302 5.000000029802317059 #
point $-1 -1 $-1 40.00000029802316703 39.49999979138380013 5.000000029802317059 #
DXID-attrib $-1 -1 $-1 $-1 $112 @10 ASM ENTITY @1 4 #
loop $-1 -1 $-1 $-1 $118 $112 #
plane-surface $-1 -1 $-1 46.49999999999993605 35.24722328006980376 7.000000029802315282 -1.708035422500238954e-16 -1.000000000000001554 9.714451465470118496e-17 -9.999999999999987566 1.708035422500243046e-15 -1.659262721318233326e-31 forward_v I I I I #
coedge $235 -1 $-1 $236 $237 $117 $179 reversed $113 0 $-1 #
ATTRIB_CUSTOM-attrib $-1 -1 $-1 $-1 $115 @17 sketch_attrib_def 1 1 3 @13 111 0 0 0 1 1 #
coedge $-1 -1 $-1 $238 $115 $182 $239 forward $73 0 $-1 #
coedge $-1 -1 $-1 $115 $238 $236 $240 reversed $73 0 $-1 #
edge $-1 -1 $-1 $184 -0.3109270871885031484 $241 0.9890729128114974511 $116 $242 forward @7 unknown #
edge $-1 -1 $-1 $241 -0.3390729128114968738 $183 0.9609270871885029486 $117 $243 forward @7 unknown #
ATTRIB_CUSTOM-attrib $-1 -1 $-1 $-1 $118 @17 sketch_attrib_def 1 1 3 @13 109 0 0 0 1 1 #
coedge $-1 -1 $-1 $244 $118 $237 $245 forward $172 0 $-1 #
coedge $-1 -1 $-1 $118 $244 $176 $239 reversed $172 0 $-1 #
vertex $-1 -1 $-1 $119 0 $246 #
vertex $-1 -1 $-1 $119 1 $247 #
straight-curve $-1 -1 $-1 43.24999999999994316 35.24722328006980376 7.000000029802315282 -9.999999999999987566 1.708035422500243046e-15 -1.659262721318233326e-31 I I #
DXID-attrib $-1 -1 $-1 $-1 $120 @10 ASM ENTITY @1 6 #
vertex $-1 -1 $-1 $120 0 $248 #
ellipse-curve $-1 -1 $-1 39.99999999999994316 38.67500002980237639 4.50000002980231617 8.980489425909771294e-49 -9.714451465470122194e-17 -0.9999999999999996669 -3.559118537227620177e-31 38.50000000000004974 -3.740063814205994518e-15 1 I I #
point $-1 -1 $-1 3.999999999999989342 38.67500002980237639 7.000000029802315282 #
DXID-attrib $-1 -1 $-1 $-1 $124 @10 ASM ENTITY @1 4 #
face $249 -1 $-1 $-1 $250 $24 $-1 $251 forward double out #
plane-surface $-1 -1 $-1 39.99999999999994316 38.67500002980237639 2.000000029802317503 8.980489425909771294e-49 -9.714451465470122194e-17 -0.9999999999999996669 9.999999999999987566 6.162975822039143782e-32 -1.710569414458994275e-48 forward_v I I I I #
coedge $-1 -1 $-1 $198 $130 $132 $202 reversed $125 0 $-1 #
coedge $-1 -1 $-1 $203 $127 $128 $197 reversed $82 0 $-1 #
edge $-1 -1 $-1 $252 -1.649999999999999467 $139 0.5499999999999998224 $137 $253 forward @7 unknown #
coedge $-1 -1 $-1 $129 $128 $136 $207 reversed $58 0 $-1 #
edge $-1 -1 $-1 $200 0 $252 1.273930924344016669 $128 $254 forward @7 unknown #
coedge $-1 -1 $-1 $130 $193 $203 $255 reversed $125 0 $-1 #
vertex $-1 -1 $-1 $202 1 $256 #
vertex $-1 -1 $-1 $131 1 $257 #
straight-curve $-1 -1 $-1 34.49999990380685233 38.6758528798339114 1.000000029802317947 -9.999999999999985789 -2.019169896939523957e-07 1.961512796435727496e-23 F -3.618500996795859681 F 2.518501003204141053 #
edge $-1 -1 $-1 $204 -0.4126477371937621319 $199 -0.4123522628062373241 $193 $258 forward @7 unknown #
coedge $-1 -1 $-1 $133 $194 $198 $255 forward $82 0 $-1 #
vertex $-1 -1 $-1 $202 0 $259 #
straight-curve $-1 -1 $-1 40.00000025646896518 25.97329410763059698 2.000000029802318835 -2.012939440723497802e-07 9.96914334781503797 -0.7849719171507900661 F 0 F 1.273930924344016447 #
straight-curve $-1 -1 $-1 40.00147737192034469 38.67585299091808793 1.000000029802317947 8.63353129252947582 4.984571848233187552 0.7849719171507890669 F 0 F 1.273930924344016002 #
edge $-1 -1 $-1 $140 -1.649999999999999023 $252 0.5499999999999997113 $136 $260 forward @7 unknown #
loop $-1 -1 $-1 $-1 $261 $124 #
point $-1 -1 $-1 40.00000025646896518 25.97329410763059698 2.000000029802318835 #
point $-1 -1 $-1 50.99999987176541083 45.02585321299694954 2.000000029802317059 #
DXID-attrib $-1 -1 $-1 $-1 $144 @10 ASM ENTITY @1 5 #
loop $-1 -1 $-1 $-1 $262 $144 #
plane-surface $-1 -1 $-1 46.49999999999993605 35.24722328006980376 7.000000029802315282 -8.46410341379090549e-17 -0.4955461287448643115 -0.8685816221207877108 -8.029571304896969214e-32 8.685816221207891985 -4.955461287448632568 forward_v I I I I #
coedge $-1 -1 $-1 $263 $264 $-1 $265 forward $145 0 $-1 #
coedge $-1 -1 $-1 $158 $147 $264 $266 forward $94 0 $-1 #
coedge $-1 -1 $-1 $147 $158 $267 $268 reversed $94 0 $-1 #
edge $269 -1 $-1 $270 -0.3109270871885029264 $271 0.9890729128114972291 $147 $272 forward @7 unknown #
pcurve $-1 -1 $-1 0 reversed { exp_par_cur nubs 1 open 2 
	-1 1 -0 1 
	0 1 
	0 0 
	2.279228077410873422e-15 
	spline forward { ref 2 } I I I I 
	} 0 0 #
DXID-attrib $-1 -1 $-1 $-1 $149 @10 ASM ENTITY @2 13 #
ellipse-curve $-1 -1 $-1 40.00000029802316703 38.99999979138379302 5.000000029802317059 8.980489425909771294e-49 -9.714451465470122194e-17 -0.9999999999999996669 0.4999999999999994449 3.081487911019572233e-33 -8.552847072294971943e-50 1 F 0.5235987755982952629 F 2.617993877991495744 #
coedge $-1 -1 $-1 $264 $263 $151 $222 reversed $145 0 $-1 #
edge $273 -1 $-1 $167 -0.6928203230275508107 $225 0 $151 $274 forward @7 unknown #
pcurve $-1 -1 $-1 0 reversed { exp_par_cur nubs 1 open 2 
	-0 1 0.6928203230275506996 1 
	0.9999999999999995559 1 
	0 0.999999999999999889 
	3.125012155735671837e-16 
	spline forward { ref 1 } I I I I 
	} 0 0 #
DXID-attrib $-1 -1 $-1 $-1 $153 @10 ASM ENTITY @2 12 #
vertex $-1 -1 $-1 $222 1 $275 #
straight-curve $-1 -1 $-1 40.43301299991539111 38.74999979138379302 5.000000029802317059 3.031088913245528982 -1.749999985098842581 0.9999999999999994449 F 0 F 1 #
point $-1 -1 $-1 40.43301299991539111 38.74999979138379302 5.000000029802317059 #
DXID-attrib $-1 -1 $-1 $-1 $159 @10 ASM ENTITY @1 8 #
straight-curve $-1 -1 $-1 40.00000029802316703 42.99999980628496132 6.000000029802315282 4.999999999999993783 8.660254037844399733 -8.412961752928090772e-16 F -0.6928203230275509217 F 0 #
coedge $-1 -1 $-1 $276 $267 $161 $231 reversed $212 0 $-1 #
edge $277 -1 $-1 $225 -0.6928203230275506996 $164 2.220446049250313081e-16 $161 $278 forward @7 unknown #
pcurve $-1 -1 $-1 0 reversed { exp_par_cur nubs 1 open 2 
	0 1 0.6928203230275506996 1 
	0.9999999999999996669 1 
	0 1 
	2.26485497023531879e-15 
	spline forward { ref 2 } I I I I 
	} 0 0 #
point $-1 -1 $-1 36.53589868288541709 36.99999980628494711 6.00000002980231617 #
point $-1 -1 $-1 40.00000029802316703 42.99999980628496132 6.000000029802315282 #
ATTRIB_CUSTOM-attrib $-1 -1 $-1 $-1 $174 @17 sketch_attrib_def 1 1 3 @13 110 0 0 0 1 1 #
coedge $-1 -1 $-1 $279 $174 $177 $240 forward $113 0 $-1 #
coedge $-1 -1 $-1 $174 $279 $181 $245 reversed $113 0 $-1 #
coedge $-1 -1 $-1 $177 $176 $-1 $280 forward $73 0 $-1 #
edge $-1 -1 $-1 $184 0 $281 0.0999999999999999778 $176 $282 forward @7 unknown #
edge $-1 -1 $-1 $241 0 $283 0.0999999999999999778 $177 $284 forward @7 unknown #
vertex $-1 -1 $-1 $179 0 $285 #
straight-curve $-1 -1 $-1 35.05463543594246545 37.93993084236922897 7.000000029802315282 4.999999999999997335 8.66025403784439618 -8.412961752928087814e-16 I I #
straight-curve $-1 -1 $-1 41.69536456405742797 43.56909596696809217 7.000000029802314394 4.999999999999991118 -8.660254037844399733 8.412961752928091758e-16 I I #
coedge $-1 -1 $-1 $182 $181 $-1 $286 forward $172 0 $-1 #
edge $-1 -1 $-1 $183 0 $287 0.0999999999999999778 $237 $288 forward @7 unknown #
point $-1 -1 $-1 46.49999999999993605 35.24722328006980376 7.000000029802315282 #
point $-1 -1 $-1 33.49999999999995026 35.24722328006980376 7.000000029802315282 #
point $-1 -1 $-1 39.99999999999994316 0.175000029802326651 4.500000029802320611 #
DXID-attrib $-1 -1 $-1 $-1 $191 @10 ASM ENTITY @1 5 #
loop $-1 -1 $-1 $289 $290 $191 #
torus-surface $-1 -1 $-1 39.99999999999994316 38.67500002980237639 4.50000002980231617 8.980489425909771294e-49 -9.714451465470122194e-17 -0.9999999999999996669 35.99999999999999289 2.499999999999999556 -9.244463733058741674e-33 1 -9.714451465470125892e-17 forward_v I I I I #
vertex $-1 -1 $-1 $207 1 $291 #
straight-curve $-1 -1 $-1 37.25000016029309791 30.73643377291784518 2.000000029802318391 5.000000174865236957 -8.660253936885901282 8.412961654852446957e-16 I I #
straight-curve $-1 -1 $-1 39.99852262804510161 38.67585299085842365 1.000000029802317947 -8.633531493823419112 4.984571499581851306 0.7849719171507886228 F 0 F 1.273930924344016669 #
edge $-1 -1 $-1 $200 -0.6876477275761738728 $204 -0.6873522531886493425 $198 $292 forward @7 unknown #
point $-1 -1 $-1 40.00147737192034469 38.67585299091808793 1.000000029802317947 #
point $-1 -1 $-1 39.99852262804510161 38.67585299085842365 1.000000029802317947 #
straight-curve $-1 -1 $-1 42.06323861384545637 42.24692838153054453 1.000000029802317725 4.999999825134747944 8.66025413880289463 -8.412961851003730643e-16 F -3.955676875195604403 F 2.397442067516056152 #
point $-1 -1 $-1 40.00000000003439027 38.67329410763061048 1.000000029802317947 #
straight-curve $-1 -1 $-1 34.49999987176543925 45.02585287983391993 2.000000029802317059 -9.999999999999985789 -2.019169896939523957e-07 1.961512796435727496e-23 I I #
coedge $-1 -1 $-1 $261 $261 $293 $294 reversed $208 0 $-1 #
coedge $-1 -1 $-1 $267 $276 $-1 $295 forward $212 0 $-1 #
coedge $-1 -1 $-1 $221 $214 $276 $296 forward $145 0 $-1 #
coedge $-1 -1 $-1 $214 $221 $215 $266 reversed $145 0 $-1 #
edge $297 -1 $-1 $271 -0.3390729128114968183 $298 0.9609270871885029486 $214 $299 forward @7 unknown #
edge $300 -1 $-1 $271 0 $167 0.364539530157113767 $264 $301 forward @7 unknown #
coedge $-1 -1 $-1 $230 $262 $216 $268 forward $212 0 $-1 #
edge $302 -1 $-1 $270 -1.849195715668666986e-16 $164 0.3645395227351428957 $267 $303 forward @7 unknown #
DXID-attrib $-1 -1 $-1 $-1 $217 @10 ASM ENTITY @2 15 #
vertex $-1 -1 $-1 $217 0 $304 #
vertex $-1 -1 $-1 $217 1 $305 #
straight-curve $-1 -1 $-1 35.05463543594246545 37.93993084236922897 7.000000029802315282 4.999999999999997335 8.66025403784439618 -8.412961752928087814e-16 F -0.3109270871885029264 F 0.9890729128114972291 #
DXID-attrib $-1 -1 $-1 $-1 $222 @10 ASM ENTITY @2 11 #
straight-curve $-1 -1 $-1 43.46410191316091698 36.99999980628494711 6.00000002980231617 4.999999999999993783 -8.660254037844399733 8.412961752928090772e-16 F -0.6928203230275508107 F 0 #
point $-1 -1 $-1 43.46410191316091698 36.99999980628494711 6.00000002980231617 #
coedge $-1 -1 $-1 $262 $230 $263 $296 reversed $212 0 $-1 #
DXID-attrib $-1 -1 $-1 $-1 $231 @10 ASM ENTITY @2 14 #
straight-curve $-1 -1 $-1 36.53589868288541709 36.99999980628494711 6.00000002980231617 -9.999999999999987566 -6.162975822039143782e-32 1.710569414458994275e-48 F -0.6928203230275506996 F 2.220446049250313081e-16 #
coedge $-1 -1 $-1 $237 $236 $-1 $306 forward $113 0 $-1 #
edge $307 -1 $-1 $281 -1.300000000000000488 $283 -0 $238 $308 forward @7 unknown #
vertex $-1 -1 $-1 $239 1 $309 #
straight-curve $-1 -1 $-1 33.49999999999995026 35.24722328006980376 7.000000029802315282 8.980489425909770078e-48 -9.714451465470119729e-16 -9.999999999999994671 I I #
vertex $-1 -1 $-1 $240 1 $310 #
straight-curve $-1 -1 $-1 39.99999999999995026 46.50555352926751596 7.000000029802314394 8.980489425909770078e-48 -9.714451465470119729e-16 -9.999999999999994671 I I #
point $-1 -1 $-1 39.99999999999995026 46.50555352926751596 7.000000029802314394 #
edge $311 -1 $-1 $287 -1.300000000000000044 $281 -3.792600505870248728e-32 $244 $312 forward @7 unknown #
vertex $-1 -1 $-1 $245 1 $313 #
straight-curve $-1 -1 $-1 46.49999999999993605 35.24722328006980376 7.000000029802315282 8.980489425909770078e-48 -9.714451465470119729e-16 -9.999999999999994671 I I #
loop $-1 -1 $-1 $-1 $293 $191 #
coedge $-1 -1 $-1 $290 $290 $-1 $314 forward $250 0 $-1 #
point $-1 -1 $-1 28.99999987176545346 45.02585276877957199 2.000000029802317059 #
straight-curve $-1 -1 $-1 43.4367613861716535 32.72064905092622666 1.000000029802318613 5.000000174865236957 -8.660253936885901282 8.412961654852446957e-16 F -3.497442042512421523 F 2.855676937809700444 #
coedge $-1 -1 $-1 $293 $293 $261 $294 forward $289 0 $-1 #
edge $-1 -1 $-1 $315 -3.141592653589793116 $315 3.141592653589793116 $261 $316 forward @7 tangent #
edge $317 -1 $-1 $298 -0.3249999999999997335 $270 0.9750000000000003109 $262 $318 forward @7 unknown #
edge $319 -1 $-1 $298 0 $225 0.3645394730961749596 $276 $320 forward @7 unknown #
DXID-attrib $-1 -1 $-1 $-1 $265 @10 ASM ENTITY @2 18 #
vertex $-1 -1 $-1 $265 1 $321 #
straight-curve $-1 -1 $-1 41.69536456405742797 43.56909596696809217 7.000000029802314394 4.999999999999991118 -8.660254037844399733 8.412961752928091758e-16 F -0.3390729128114968183 F 0.9609270871885029486 #
DXID-attrib $-1 -1 $-1 $-1 $266 @10 ASM ENTITY @2 16 #
straight-curve $-1 -1 $-1 39.99999999999995026 46.50555352926751596 7.000000029802314394 8.175333394093499845e-07 -9.616388437960871727 -2.743186725371062895 I I #
DXID-attrib $-1 -1 $-1 $-1 $268 @10 ASM ENTITY @2 17 #
straight-curve $-1 -1 $-1 33.49999999999995737 35.24722328006980376 7.000000029802315282 8.32803713602051765 4.808193397149524095 -2.74318678122194326 I I #
point $-1 -1 $-1 33.49999999999995026 35.24722328006980376 7.000000029802315282 #
point $-1 -1 $-1 39.99999999999995026 46.50555352926751596 7.000000029802314394 #
edge $322 -1 $-1 $283 -1.299999999999999822 $287 -0 $279 $323 forward @7 unknown #
DXID-attrib $-1 -1 $-1 $-1 $280 @10 ASM ENTITY @2 11 #
straight-curve $-1 -1 $-1 39.99999999999995026 46.50555352926751596 6.000000029802315282 4.999999999999996447 8.66025403784439618 -8.412961752928086828e-16 I I #
point $-1 -1 $-1 33.49999999999995026 35.24722328006980376 6.00000002980231617 #
point $-1 -1 $-1 39.99999999999995026 46.50555352926751596 6.000000029802315282 #
DXID-attrib $-1 -1 $-1 $-1 $286 @10 ASM ENTITY @2 15 #
straight-curve $-1 -1 $-1 33.49999999999995026 35.24722328006980376 6.00000002980231617 -9.999999999999987566 1.708035422500243046e-15 -1.659262721318233326e-31 I I #
point $-1 -1 $-1 46.49999999999993605 35.24722328006980376 6.00000002980231617 #
edge $324 -1 $-1 $325 -3.141592653589793116 $325 3.141592653589793116 $290 $326 forward @7 unknown #
vertex $-1 -1 $-1 $294 0 $327 #
ellipse-curve $-1 -1 $-1 39.99999999999994316 38.67500002980237639 2.000000029802317503 -8.980489425909771294e-49 9.714451465470122194e-17 0.9999999999999996669 35.99999999999995737 2.218671295934091324e-31 -6.158049892052378659e-48 1 I I #
DXID-attrib $-1 -1 $-1 $-1 $295 @10 ASM ENTITY @2 20 #
straight-curve $-1 -1 $-1 43.24999999999994316 35.24722328006980376 7.000000029802315282 -9.999999999999987566 1.708035422500243046e-15 -1.659262721318233326e-31 F -0.3249999999999997335 F 0.9750000000000003109 #
DXID-attrib $-1 -1 $-1 $-1 $296 @10 ASM ENTITY @2 19 #
straight-curve $-1 -1 $-1 46.49999999999993605 35.24722328006980376 7.000000029802315282 -8.328036634973875252 4.808194051876314212 -2.743187154758885526 I I #
point $-1 -1 $-1 46.49999999999993605 35.24722328006980376 7.000000029802315282 #
DXID-attrib $-1 -1 $-1 $-1 $306 @10 ASM ENTITY @2 13 #
straight-curve $-1 -1 $-1 46.49999999999993605 35.24722328006980376 6.00000002980231617 4.999999999999991118 -8.660254037844399733 8.412961752928091758e-16 I I #
DXID-attrib $-1 -1 $-1 $-1 $314 @10 ASM ENTITY @2 16 #
vertex $-1 -1 $-1 $314 0 $328 #
ellipse-curve $-1 -1 $-1 39.99999999999994316 38.67500002980237639 4.50000002980231617 8.980489425909771294e-49 -9.714451465470122194e-17 -0.9999999999999996669 -3.559118537227620177e-31 38.50000000000004974 -3.740063814205994518e-15 1 I I #
point $-1 -1 $-1 3.999999999999989342 38.67500002980236928 2.000000029802317503 #
point $-1 -1 $-1 39.99999999999994316 0.175000029802326651 4.500000029802320611 #
End-of-ASM-data 